<?xml version="1.0" encoding="UTF-8" standalone="no"?>
<svg
   width="64"
   height="64"
   viewBox="0 0 64 64"
   version="1.1"
   id="svg5"
   xmlns:inkscape="http://www.inkscape.org/namespaces/inkscape"
   xmlns="http://www.w3.org/2000/svg"
   xmlns:svg="http://www.w3.org/2000/svg">
  <defs
     id="defs2" />
  <g
     id="layer1"
     style="display:inline"
     transform="matrix(0.99107264,0,0,1.7937626,-4.3824197,-7.7625417)">
    <g
       aria-label="er"
       id="text1529">
      <path
         d="m 31.674573,23.286844 h -17.0688 v 2.6924 q 0,3.3528 1.5748,5.08 1.6256,1.7272 4.7244,1.7272 5.334,0 6.096,-3.7592 h 4.572 q -0.4572,3.5052 -3.3528,5.588 -2.8956,2.032 -7.3152,2.032 -4.9276,0 -7.874,-2.8956 -2.8956,-2.8956 -2.8956,-7.7724 v -7.62 q 0,-4.8768 2.8956,-7.7724 2.9464,-2.8955995 7.874,-2.8955995 4.9276,0 7.8232,2.8955995 2.9464,2.8956 2.9464,7.7724 z m -17.0688,-3.4544 h 12.5984 v -1.4732 q 0,-3.3528 -1.6256,-5.08 -1.5748,-1.778 -4.6736,-1.778 -3.0988,0 -4.7244,1.778 -1.5748,1.7272 -1.5748,5.08 z"
         id="path9865" />
      <path
         d="m 53.620094,7.6912445 c 2.987342,-0.088594 6.041418,1.2071076 7.771408,3.6996185 1.720659,2.284216 1.95879,5.2256 1.880592,7.988047 0.06407,0.504035 -0.739622,0.1403 -1.069549,0.250334 -1.167484,0 -2.334967,0 -3.502451,0 0.05727,-2.186686 -0.0509,-4.608052 -1.6256,-6.2992 -1.706298,-1.91512 -4.652777,-2.145076 -6.967934,-1.376164 -2.265859,0.775448 -3.603525,3.131089 -3.711179,5.439966 -0.08706,3.43333 -0.01724,6.871014 -0.03969,10.30613 0,2.813089 0,5.626179 0,8.439268 -1.524,0 -3.047999,0 -4.571999,0 0,-9.313333 0,-18.626666 0,-27.9399995 1.490133,0 2.980266,0 4.470399,0 0,1.6594665 0,3.3189335 0,4.9783995 0.490198,-2.2702 2.070562,-4.3823141 4.359821,-5.0524167 0.967489,-0.3174876 1.991151,-0.4335349 3.006179,-0.4339828 z"
         id="path9867" />
    </g>
  </g>
</svg>
