<?xml version="1.0" encoding="UTF-8" standalone="no"?>
<svg
   width="64"
   height="64"
   viewBox="0 0 64 64"
   version="1.1"
   id="svg5"
   xmlns="http://www.w3.org/2000/svg"
   xmlns:svg="http://www.w3.org/2000/svg">
  <defs
     id="defs2" />
  <g
     aria-label="a"
     transform="scale(1.0141037,0.98609245)"
     id="text1449"
     style="font-style:italic;font-weight:300;font-size:92.6439px;line-height:1.25;font-family:'JetBrains Mono';-inkscape-font-specification:'JetBrains Mono Light Italic';letter-spacing:0px;word-spacing:0px;stroke-width:0.965041">
    <path
       d="m 52.909377,51.999181 -0.926439,5.92921 h -5.095415 q -4.261619,0 -6.577716,-2.501386 -2.223454,-2.501385 -1.852878,-6.67036 -1.574947,4.724838 -5.558634,7.411511 -3.891044,2.686673 -9.357034,2.686673 -6.392429,0 -9.912897,-3.705755 -3.427824,-3.705756 -3.427824,-10.468761 0,-2.501385 0.370575,-4.724839 l 2.316098,-15.100955 q 1.389658,-8.80117 6.485073,-13.803941 5.095414,-5.0027704 12.59957,-5.0027704 5.373346,0 8.337951,2.5940292 3.057248,2.5940292 3.242536,7.3188682 l 1.482302,-8.9864584 h 7.318868 L 45.868441,47.552274 q -0.09264,0.370576 -0.09264,1.019083 0,1.574946 0.741151,2.501385 0.833795,0.926439 2.316097,0.926439 z M 42.162685,25.225095 q 0.277931,-1.667591 0.277931,-3.149893 0,-4.724839 -2.408741,-7.226224 -2.316097,-2.594029 -6.855648,-2.594029 -5.373347,0 -8.708527,3.33518 -3.242536,3.33518 -4.261619,9.634966 l -2.223454,14.452448 q -0.277931,1.945521 -0.277931,3.520468 0,9.449677 9.079102,9.449677 5.373346,0 8.708526,-3.33518 3.427824,-3.427824 4.446907,-9.634965 z"
       id="path11369" />
  </g>
</svg>
